HIERARCHY
ROOT Hips
{
	OFFSET 0.000000 0.000000 0.000000
	CHANNELS 6 Xposition Yposition Zposition Xrotation Yrotation Zrotation
	JOINT LeftUpLeg_virtual
	{
		OFFSET 0.000000 0.000000 0.000000
		CHANNELS 3 Xrotation Yrotation Zrotation
		JOINT LeftUpLeg
		{
			OFFSET 13.026900 -6.336304 -1.092800
			CHANNELS 3 Xrotation Yrotation Zrotation
			JOINT LeftLeg
			{
				OFFSET 0.524474 -46.096886 9.782700
				CHANNELS 3 Xrotation Yrotation Zrotation
				JOINT LeftFoot
				{
					OFFSET -0.524474 -53.427422 -12.948200
					CHANNELS 3 Xrotation Yrotation Zrotation
					JOINT LeftToeBase
					{
						OFFSET 0.192200 -14.009700 16.364100
						CHANNELS 3 Xrotation Yrotation Zrotation
						JOINT LeftToe_End
						{
							OFFSET -1.784700 -0.561700 9.474800
							CHANNELS 3 Xrotation Yrotation Zrotation
							End Site
							{
								OFFSET 0 0 0
							}
						}
					}
				}
			}
		}
	}
	JOINT RightUpLeg_virtual
	{
		OFFSET 0.000000 0.000000 0.000000
		CHANNELS 3 Xrotation Yrotation Zrotation
		JOINT RightUpLeg
		{
			OFFSET -12.883000 -6.336304 -1.092800
			CHANNELS 3 Xrotation Yrotation Zrotation
			JOINT RightLeg
			{
				OFFSET -0.524587 -46.096825 9.782800
				CHANNELS 3 Xrotation Yrotation Zrotation
				JOINT RightFoot
				{
					OFFSET 0.524587 -53.427383 -12.948300
					CHANNELS 3 Xrotation Yrotation Zrotation
					JOINT RightToeBase
					{
						OFFSET -0.192200 -14.009700 16.364100
						CHANNELS 3 Xrotation Yrotation Zrotation
						JOINT RightToe_End
						{
							OFFSET 1.784700 -0.561700 9.474800
							CHANNELS 3 Xrotation Yrotation Zrotation
							End Site
							{
								OFFSET 0 0 0
							}
						}
					}
				}
			}
		}
	}
	JOINT Spine_virtual
	{
		OFFSET 0.000000 0.000000 0.000000
		CHANNELS 3 Xrotation Yrotation Zrotation
		JOINT Spine
		{
			OFFSET 0.072000 7.257294 -0.789700
			CHANNELS 3 Xrotation Yrotation Zrotation
			JOINT Spine1
			{
				OFFSET 0.000000 12.508769 -0.658067
				CHANNELS 3 Xrotation Yrotation Zrotation
				JOINT Spine1_split
				{
					OFFSET 0.000000 12.508769 -0.658067
					CHANNELS 3 Xrotation Yrotation Zrotation
					JOINT Spine2
					{
						OFFSET 0.000000 12.508769 -0.658067
						CHANNELS 3 Xrotation Yrotation Zrotation
						JOINT Neck_virtual
						{
							OFFSET 0.000000 0.000000 0.000000
							CHANNELS 3 Xrotation Yrotation Zrotation
							JOINT Neck
							{
								OFFSET 0.000000 14.033295 7.520400
								CHANNELS 3 Xrotation Yrotation Zrotation
								JOINT Head
								{
									OFFSET 0.000000 8.198502 5.703100
									CHANNELS 3 Xrotation Yrotation Zrotation
									JOINT HeadTop_End
									{
										OFFSET 0.000000 17.760803 13.332701
										CHANNELS 3 Xrotation Yrotation Zrotation
										End Site
										{
											OFFSET 0 0 0
										}
									}
								}
							}
						}
						JOINT LeftShoulder_virtual
						{
							OFFSET 0.000000 0.000000 0.000000
							CHANNELS 3 Xrotation Yrotation Zrotation
							JOINT LeftShoulder
							{
								OFFSET 6.292450 5.785301 -0.669000
								CHANNELS 3 Xrotation Yrotation Zrotation
								JOINT LeftShoulder_split
								{
									OFFSET 6.292450 5.785301 -0.669000
									CHANNELS 3 Xrotation Yrotation Zrotation
									JOINT LeftArm
									{
										OFFSET 13.907140 -6.093903 1.965100
										CHANNELS 3 Xrotation Yrotation Zrotation
										JOINT LeftForeArm
										{
											OFFSET 34.140198 0.000000 0.000000
											CHANNELS 3 Xrotation Yrotation Zrotation
											JOINT LeftHand
											{
												OFFSET 40.960209 0.000000 0.000000
												CHANNELS 3 Xrotation Yrotation Zrotation
												End Site
												{
													OFFSET 0 0 0
												}
											}
										}
									}
								}
							}
						}
						JOINT RightShoulder_virtual
						{
							OFFSET 0.000000 0.000000 0.000000
							CHANNELS 3 Xrotation Yrotation Zrotation
							JOINT RightShoulder
							{
								OFFSET -6.292450 5.785301 -0.669000
								CHANNELS 3 Xrotation Yrotation Zrotation
								JOINT RightShoulder_split
								{
									OFFSET -6.292450 5.785301 -0.669000
									CHANNELS 3 Xrotation Yrotation Zrotation
									JOINT RightArm
									{
										OFFSET -13.907140 -6.093903 1.965100
										CHANNELS 3 Xrotation Yrotation Zrotation
										JOINT RightForeArm
										{
											OFFSET -34.140198 0.000000 0.000000
											CHANNELS 3 Xrotation Yrotation Zrotation
											JOINT RightHand
											{
												OFFSET -40.960209 0.000000 0.000000
												CHANNELS 3 Xrotation Yrotation Zrotation
												End Site
												{
													OFFSET 0 0 0
												}
											}
										}
									}
								}
							}
						}
					}
				}
			}
		}
	}
}
MOTION
Frames: 5
Frame Time: 0.03333333
10.264200 113.004036 17.438560 0.000000 0.000000 0.000000 -0.834014 8.712289 -4.406156 2.350663 11.813622 9.619219 16.120044 -5.425312 -0.702871 -19.547390 2.261606 0.749132 -1.060913 -0.515997 -1.142779 0.000000 0.000000 0.000000 -0.412926 7.215714 -4.654772 -31.297911 -7.809829 -2.723371 30.356813 -1.045444 0.471114 -0.662956 2.667795 5.030005 2.838100 0.897334 1.399890 0.000000 0.000000 0.000000 0.042343 7.907121 -4.287404 11.627566 -1.809524 2.585279 0.702812 -1.729049 0.822805 0.807023 -1.097559 0.431876 0.000000 0.000000 0.000000 -3.043445 -1.400047 1.016215 -1.004591 -0.252028 5.182076 -3.970157 0.138394 -4.522974 0.000000 0.000000 0.000000 -3.169193 -1.593857 1.000909 0.821481 -1.044133 -3.068138 -1.257647 -0.591778 -0.117796 -0.938570 -10.213653 -74.654453 10.455140 -13.025423 -3.257920 0.000000 0.000000 0.000000 -3.293433 -1.893631 0.986509 2.399578 -0.115242 7.988385 -2.366451 1.050713 -1.601555 1.938277 10.637249 71.479405 11.130849 19.046975 3.162482 0.000000 0.000000 0.000000 
10.482713 113.648438 19.525597 0.000000 0.000000 0.000000 -0.438204 9.561916 -5.293968 3.915993 11.284897 9.977061 14.684681 -6.220734 -0.400564 -19.438647 2.452363 0.152789 -2.056214 -0.737628 -1.164783 0.000000 0.000000 0.000000 -0.066412 7.446421 -5.508913 -31.935291 -7.478756 -1.335768 25.042311 0.487332 0.227898 -0.781138 2.975986 5.857957 4.245748 -0.355740 0.561308 0.000000 0.000000 0.000000 0.577500 7.955895 -5.015261 11.521917 -1.899035 3.312805 0.438984 -1.909007 0.910475 0.761567 -1.050288 0.430540 0.000000 0.000000 0.000000 -3.180484 -1.552701 1.115861 -1.237883 -0.380184 5.028410 -4.289715 0.059569 -5.251172 0.000000 0.000000 0.000000 -3.326122 -1.719568 0.980466 0.848795 -1.113585 -2.963055 -1.213799 -0.277980 0.010719 -1.270976 -10.844174 -74.501497 10.656707 -13.516983 -3.646586 0.000000 0.000000 0.000000 -3.307004 -1.974525 1.066102 2.514810 -0.798327 7.955550 -2.435892 0.810716 -1.852361 2.050768 11.040094 71.387197 10.838314 18.674820 4.020204 0.000000 0.000000 0.000000 
10.576700 114.188995 21.740849 0.000000 0.000000 0.000000 -0.097802 10.394330 -6.001001 5.378780 10.297244 10.415665 13.623411 -6.930996 -0.060562 -18.938759 3.136587 -0.995084 -3.059951 -0.961133 -1.119135 0.000000 0.000000 0.000000 0.217911 8.073207 -6.203130 -32.507848 -6.687574 -0.441851 20.537148 2.141837 0.060350 -0.063338 3.410721 6.330223 4.454424 -1.598869 -0.163737 0.000000 0.000000 0.000000 0.895785 8.099665 -5.641722 11.715681 -2.136997 3.799531 0.165973 -2.176130 1.144559 0.588330 -0.810423 0.457169 0.000000 0.000000 0.000000 -3.340030 -1.815434 1.362894 -1.646240 -0.473940 4.717036 -4.704052 -0.129031 -5.886682 0.000000 0.000000 0.000000 -3.543365 -1.936663 1.111629 0.864098 -1.246763 -3.144513 -1.278646 0.166651 -0.023315 -1.304533 -11.586455 -74.162768 10.753397 -13.853829 -4.088217 0.000000 0.000000 0.000000 -3.413099 -2.166867 1.266482 2.609011 -1.398397 7.749705 -2.459746 0.744792 -2.046582 2.323600 11.609642 71.592028 10.459277 18.695695 4.618878 0.000000 0.000000 0.000000 
10.554110 114.415222 24.172207 0.000000 0.000000 0.000000 0.119984 10.959658 -6.513017 7.149164 9.423499 10.763538 12.709022 -6.908219 0.292151 -19.096422 4.392554 -1.660581 -3.585785 -1.205981 -1.006061 0.000000 0.000000 0.000000 0.410282 8.902551 -6.693529 -33.255593 -5.753438 -0.110331 17.157355 3.486758 0.009959 1.033587 3.707024 5.934274 4.503148 -2.657438 -0.637949 0.000000 0.000000 0.000000 0.972873 8.304200 -6.120278 12.152968 -2.439401 4.018964 -0.104985 -2.488224 1.454325 0.461980 -0.420707 0.412191 0.000000 0.000000 0.000000 -3.482194 -2.138357 1.677429 -2.233546 -0.578966 4.372372 -5.213568 -0.427463 -6.376115 0.000000 0.000000 0.000000 -3.789427 -2.207041 1.342699 0.865006 -1.405919 -3.530521 -1.408428 0.536990 -0.059385 -1.139099 -12.408166 -73.703656 10.750591 -14.253649 -4.523140 0.000000 0.000000 0.000000 -3.574567 -2.433567 1.521785 2.662645 -1.910431 7.439901 -2.435599 0.817729 -2.103440 2.680265 12.256783 72.034877 9.996635 18.993475 5.011859 0.000000 0.000000 0.000000 
10.394949 114.172600 27.015491 0.000000 0.000000 0.000000 0.198981 11.373594 -6.789423 9.186540 9.033343 11.086905 11.857249 -6.553529 0.561405 -20.028121 5.935221 -2.477440 -4.111819 -1.451961 -0.607698 0.000000 0.000000 0.000000 0.519684 9.820396 -6.974799 -34.084850 -5.039892 -0.237829 15.429857 4.292054 0.070445 2.425706 3.710877 4.672175 4.773629 -3.373191 -0.845977 0.000000 0.000000 0.000000 0.720899 8.629696 -6.351807 12.771346 -2.717038 4.017212 -0.367489 -2.780305 1.753154 0.382631 0.147888 0.285937 0.000000 0.000000 0.000000 -3.596048 -2.450046 1.959193 -2.943961 -0.709791 4.107686 -5.754634 -0.799710 -6.700022 0.000000 0.000000 0.000000 -4.028642 -2.460100 1.580873 0.858889 -1.524713 -4.016923 -1.542087 0.550306 -0.069900 -0.918501 -13.202657 -73.226342 10.686102 -14.892778 -4.895369 0.000000 0.000000 0.000000 -3.735117 -2.694690 1.743100 2.691221 -2.354627 7.128816 -2.355469 0.995006 -1.994303 2.974663 12.821247 72.578744 9.476936 19.385877 5.276906 0.000000 0.000000 0.000000 
